<?xml version="1.0" standalone="no"?>
<!DOCTYPE svg PUBLIC "-//W3C//DTD SVG 20010904//EN"
 "http://www.w3.org/TR/2001/REC-SVG-20010904/DTD/svg10.dtd">
<svg version="1.0" xmlns="http://www.w3.org/2000/svg"
 width="128.000000pt" height="128.000000pt" viewBox="0 0 128.000000 128.000000"
 preserveAspectRatio="xMidYMid meet">

<g transform="translate(0.000000,128.000000) scale(0.100000,-0.100000)"
fill="#000000" stroke="none">
<path d="M1140 1025 c-14 -8 -20 -14 -14 -15 5 0 19 7 30 15 24 18 16 19 -16
0z"/>
<path d="M1090 1010 c-9 -6 -10 -10 -3 -10 6 0 15 5 18 10 8 12 4 12 -15 0z"/>
<path d="M1147 994 c-16 -9 -27 -17 -25 -20 5 -5 68 25 68 32 0 7 -15 3 -43
-12z"/>
<path d="M1048 993 c7 -3 16 -2 19 1 4 3 -2 6 -13 5 -11 0 -14 -3 -6 -6z"/>
<path d="M975 980 c-25 -11 1 -11 35 0 20 6 21 8 5 8 -11 0 -29 -3 -40 -8z"/>
<path d="M865 955 c-27 -7 -41 -13 -30 -13 11 0 43 6 70 13 28 7 41 13 30 13
-11 0 -42 -6 -70 -13z"/>
<path d="M1035 939 c-22 -10 -33 -18 -25 -18 8 0 26 6 39 13 14 8 32 11 40 8
9 -3 12 -1 7 6 -9 15 -12 15 -61 -9z"/>
<path d="M759 937 c5 -5 19 -7 32 -5 20 3 19 5 -9 9 -20 3 -29 2 -23 -4z"/>
<path d="M595 915 c-50 -7 -72 -13 -50 -13 22 0 78 5 125 12 47 8 69 13 50 13
-19 0 -75 -5 -125 -12z"/>
<path d="M940 905 c-23 -9 -28 -14 -15 -14 11 0 31 6 45 14 31 18 16 18 -30 0z"/>
<path d="M1030 889 c-34 -11 -43 -17 -24 -14 31 4 109 34 89 33 -5 0 -35 -8
-65 -19z"/>
<path d="M213 893 c54 -2 139 -2 190 0 51 1 7 3 -98 3 -104 0 -146 -2 -92 -3z"/>
<path d="M87 879 c7 -7 15 -10 18 -7 3 3 -2 9 -12 12 -14 6 -15 5 -6 -5z"/>
<path d="M878 883 c7 -3 16 -2 19 1 4 3 -2 6 -13 5 -11 0 -14 -3 -6 -6z"/>
<path d="M1068 866 c-43 -25 -64 -45 -30 -27 12 7 28 9 34 5 7 -5 8 -3 4 5 -5
8 -2 11 9 9 11 -2 19 4 20 15 2 9 3 17 2 16 -1 0 -19 -11 -39 -23z"/>
<path d="M838 873 c7 -3 16 -2 19 1 4 3 -2 6 -13 5 -11 0 -14 -3 -6 -6z"/>
<path d="M140 860 c14 -4 34 -8 45 -8 16 0 15 2 -5 8 -14 4 -34 8 -45 8 -16 0
-15 -2 5 -8z"/>
<path d="M798 863 c7 -3 16 -2 19 1 4 3 -2 6 -13 5 -11 0 -14 -3 -6 -6z"/>
<path d="M885 854 c-32 -8 -65 -12 -72 -10 -7 3 -13 1 -13 -4 0 -6 -12 -11
-27 -11 -16 -1 -21 -3 -12 -6 15 -4 199 33 208 43 7 7 -21 3 -84 -12z"/>
<path d="M748 853 c6 -2 18 -2 25 0 6 3 1 5 -13 5 -14 0 -19 -2 -12 -5z"/>
<path d="M218 843 c6 -2 18 -2 25 0 6 3 1 5 -13 5 -14 0 -19 -2 -12 -5z"/>
<path d="M683 843 c9 -2 23 -2 30 0 6 3 -1 5 -18 5 -16 0 -22 -2 -12 -5z"/>
<path d="M288 833 c12 -2 30 -2 40 0 9 3 -1 5 -23 4 -22 0 -30 -2 -17 -4z"/>
<path d="M588 833 c12 -2 32 -2 45 0 12 2 2 4 -23 4 -25 0 -35 -2 -22 -4z"/>
<path d="M408 823 c28 -2 76 -2 105 0 28 2 5 3 -53 3 -58 0 -81 -1 -52 -3z"/>
<path d="M970 815 c-14 -8 -20 -14 -15 -14 6 0 21 6 35 14 14 8 21 14 15 14
-5 0 -21 -6 -35 -14z"/>
<path d="M703 813 c9 -2 23 -2 30 0 6 3 -1 5 -18 5 -16 0 -22 -2 -12 -5z"/>
<path d="M535 800 c-48 -7 -48 -7 -10 -7 22 -1 65 2 95 7 54 7 54 7 10 7 -25
0 -67 -3 -95 -7z"/>
<path d="M910 790 c-8 -5 -10 -10 -5 -10 6 0 17 5 25 10 8 5 11 10 5 10 -5 0
-17 -5 -25 -10z"/>
<path d="M248 783 c39 -2 105 -2 145 0 39 1 7 3 -73 3 -80 0 -112 -2 -72 -3z"/>
<path d="M985 770 c-16 -7 -17 -9 -3 -9 9 -1 20 4 23 9 7 11 7 11 -20 0z"/>
<path d="M185 755 c17 -7 48 -16 70 -19 27 -4 19 0 -25 14 -75 22 -88 24 -45
5z"/>
<path d="M818 765 c-3 -3 -36 -12 -74 -19 -48 -10 -58 -14 -34 -14 35 -1 159
35 129 37 -9 1 -18 -1 -21 -4z"/>
<path d="M905 750 c-25 -11 1 -11 35 0 20 6 21 8 5 8 -11 0 -29 -3 -40 -8z"/>
<path d="M986 735 c-11 -8 -15 -15 -9 -15 7 0 15 5 19 11 3 6 15 9 25 6 11 -3
17 -1 13 4 -8 13 -26 11 -48 -6z"/>
<path d="M858 733 c7 -3 16 -2 19 1 4 3 -2 6 -13 5 -11 0 -14 -3 -6 -6z"/>
<path d="M318 723 c12 -2 30 -2 40 0 9 3 -1 5 -23 4 -22 0 -30 -2 -17 -4z"/>
<path d="M618 723 c12 -2 30 -2 40 0 9 3 -1 5 -23 4 -22 0 -30 -2 -17 -4z"/>
<path d="M803 723 c9 -2 23 -2 30 0 6 3 -1 5 -18 5 -16 0 -22 -2 -12 -5z"/>
<path d="M428 713 c28 -2 76 -2 105 0 28 2 5 3 -53 3 -58 0 -81 -1 -52 -3z"/>
<path d="M700 710 c-34 -7 -34 -7 -5 -8 17 0 44 4 60 8 27 7 27 8 5 8 -14 -1
-41 -4 -60 -8z"/>
<path d="M946 713 c-4 -4 -30 -17 -59 -30 -29 -12 -44 -22 -34 -23 11 0 15 -4
11 -12 -4 -7 -3 -8 5 -4 6 4 8 12 5 18 -5 8 -1 9 10 5 10 -4 15 -3 11 3 -3 5
5 12 19 16 14 3 30 12 37 20 12 14 8 20 -5 7z"/>
<path d="M608 693 c12 -2 30 -2 40 0 9 3 -1 5 -23 4 -22 0 -30 -2 -17 -4z"/>
<path d="M285 679 c-17 -4 6 -7 55 -7 85 0 91 4 15 10 -22 2 -54 0 -70 -3z"/>
<path d="M438 683 c6 -2 18 -2 25 0 6 3 1 5 -13 5 -14 0 -19 -2 -12 -5z"/>
<path d="M503 683 c15 -2 37 -2 50 0 12 2 0 4 -28 4 -27 0 -38 -2 -22 -4z"/>
<path d="M200 665 c0 -7 73 -36 82 -33 5 2 -11 11 -37 20 -25 9 -45 15 -45 13z"/>
<path d="M775 645 c-22 -8 -31 -14 -20 -14 11 0 34 6 50 14 38 17 22 17 -30 0z"/>
<path d="M315 620 c19 -8 83 -14 74 -6 -2 2 -24 6 -49 9 -30 4 -38 3 -25 -3z"/>
<path d="M660 620 c-34 -7 -34 -7 -5 -8 17 0 41 4 55 8 33 11 0 11 -50 0z"/>
<path d="M795 619 c-22 -5 -85 -16 -140 -23 -55 -8 -84 -14 -63 -15 38 -1 268
36 276 44 8 7 -28 4 -73 -6z"/>
<path d="M448 603 c28 -2 76 -2 105 0 28 2 5 3 -53 3 -58 0 -81 -1 -52 -3z"/>
<path d="M864 578 c-4 -7 -4 -10 1 -6 4 4 15 2 24 -5 14 -11 14 -10 2 6 -16
20 -18 21 -27 5z"/>
<path d="M303 573 c9 -2 25 -2 35 0 9 3 1 5 -18 5 -19 0 -27 -2 -17 -5z"/>
<path d="M438 573 c23 -2 59 -2 80 0 20 2 1 4 -43 4 -44 0 -61 -2 -37 -4z"/>
<path d="M760 537 c-71 -25 -106 -31 -215 -37 l-130 -7 115 -3 c88 -2 105 -5
70 -10 -41 -6 -42 -7 -10 -8 19 0 58 3 85 8 l50 7 -45 2 -45 3 58 14 c33 8 64
11 70 7 5 -3 7 -2 4 4 -4 5 12 16 34 23 22 8 42 17 45 22 3 4 4 8 2 7 -2 -1
-41 -15 -88 -32z"/>
<path d="M265 549 c6 -9 94 -43 99 -38 2 2 -20 13 -50 25 -29 12 -51 18 -49
13z"/>
<path d="M388 503 c7 -3 16 -2 19 1 4 3 -2 6 -13 5 -11 0 -14 -3 -6 -6z"/>
<path d="M755 500 l-30 -8 33 -1 c17 0 32 4 32 9 0 6 -1 9 -2 9 -2 -1 -16 -5
-33 -9z"/>
<path d="M802 465 c-47 -32 -52 -40 -14 -21 23 12 32 13 32 4 0 -8 6 -6 17 5
29 29 2 38 -35 12z m38 5 c0 -5 -5 -10 -11 -10 -5 0 -7 5 -4 10 3 6 8 10 11
10 2 0 4 -4 4 -10z"/>
<path d="M378 463 c29 -2 74 -2 100 0 26 2 2 3 -53 3 -55 0 -76 -1 -47 -3z"/>
<path d="M333 426 c0 -8 6 -12 15 -8 9 3 13 1 10 -4 -4 -5 5 -10 19 -11 24 -1
24 0 -6 18 -38 23 -38 23 -38 5z"/>
<path d="M690 408 c-14 -5 -45 -14 -70 -19 l-45 -8 45 3 c25 2 61 10 80 19 39
17 30 22 -10 5z"/>
<path d="M411 397 c2 -1 12 -9 22 -16 15 -12 17 -12 11 3 -3 9 -13 16 -22 16
-8 0 -13 -1 -11 -3z"/>
<path d="M367 379 c7 -7 15 -10 18 -7 3 3 -2 9 -12 12 -14 6 -15 5 -6 -5z"/>
<path d="M460 386 c0 -2 7 -6 15 -10 8 -3 15 -1 15 4 0 6 -7 10 -15 10 -8 0
-15 -2 -15 -4z"/>
<path d="M515 370 c3 -6 43 -10 87 -10 45 0 79 2 77 4 -10 9 -169 15 -164 6z"/>
<path d="M408 353 c18 -2 45 -2 60 0 15 2 0 4 -33 4 -33 0 -45 -2 -27 -4z"/>
<path d="M716 331 c-10 -11 -31 -25 -47 -31 -16 -7 -28 -15 -25 -17 7 -7 59
23 80 46 11 12 17 21 14 21 -3 0 -13 -9 -22 -19z"/>
<path d="M407 310 c18 -19 34 -32 36 -29 2 2 -12 17 -32 33 l-36 30 32 -34z"/>
<path d="M468 273 c7 -3 16 -2 19 1 4 3 -2 6 -13 5 -11 0 -14 -3 -6 -6z"/>
<path d="M608 273 c7 -3 16 -2 19 1 4 3 -2 6 -13 5 -11 0 -14 -3 -6 -6z"/>
<path d="M518 263 c12 -2 32 -2 45 0 12 2 2 4 -23 4 -25 0 -35 -2 -22 -4z"/>
</g>
</svg>
